<?xml version="1.0" encoding="utf-8"?>
<!-- Generator: Adobe Illustrator 25.3.1, SVG Export Plug-In . SVG Version: 6.00 Build 0)  -->
<svg version="1.1" id="Capa_1" xmlns="http://www.w3.org/2000/svg" xmlns:xlink="http://www.w3.org/1999/xlink" x="0px" y="0px"
	 viewBox="0 0 2022.2 505.7" style="enable-background:new 0 0 2022.2 505.7;" xml:space="preserve">
<style type="text/css">
	.st0{fill:#231F20;}
	.st1{fill:#EA3223;}
	.st2{fill:none;stroke:#EA3223;stroke-width:25;stroke-miterlimit:10;}
</style>
<path class="st0" d="M528,324.5V229c0-4.2-0.2-7.9-0.5-11.1c-0.3-3.2-0.8-5.9-1.4-8.1h52.8c0.7,2.6,1.3,5.5,1.6,8.6
	c0.3,3.1,0.5,6.4,0.5,9.9c4.9-7.4,10.7-12.9,17.5-16.3c6.7-3.5,14.9-5.2,24.4-5.2c1.6,0,2.9,0,3.8,0.1c0.9,0,1.7,0.1,2.6,0.3v38
	c-2.4-0.2-4.7-0.4-6.8-0.5c-2.2-0.1-4.2-0.2-6-0.2c-13.2,0-22.4,2.6-27.7,7.8c-5.3,5.2-7.9,14.4-7.9,27.7v44.5H528z"/>
<path class="st0" d="M646.8,324.3V159.7h53v68.4c6.2-7.1,13.3-12.4,21-16c7.8-3.6,16.3-5.4,25.6-5.4c17.3,0,30.4,4.2,39.3,12.6
	c9,8.4,13.4,20.7,13.4,36.8v68.1h-53v-65.4c0-7.9-1.7-13.8-5.2-17.7c-3.5-3.9-8.8-5.9-15.8-5.9c-8.6,0-14.9,2.7-19.1,8
	c-4.2,5.3-6.2,13.4-6.2,24.3v56.7H646.8z"/>
<path class="st0" d="M824.4,324.3V209.6h53v114.7H824.4z"/>
<path class="st0" d="M903.6,324.3v-95.5c0-3.9-0.2-7.4-0.6-10.7c-0.4-3.3-0.9-6.1-1.5-8.5h52.9c0.7,1.8,1.2,4.1,1.5,7.1
	c0.3,2.9,0.4,6.7,0.4,11.4c6.6-7.2,13.8-12.6,21.4-16.1c7.7-3.5,16.1-5.2,25.4-5.2c17.2,0,30.2,4.4,39.2,13.3
	c8.9,8.9,13.4,21.8,13.4,38.8v65.4H1003v-63.7c0-8.8-1.7-15.2-5.1-19.2c-3.4-4-8.7-6-16-6c-8.6,0-15,2.7-19.2,8
	c-4.2,5.4-6.4,13.4-6.4,24.2v56.7H903.6z"/>
<path class="st0" d="M1158.7,327.1c-27.6,0-48.4-5.1-62.5-15.2c-14.1-10.1-21.1-25.1-21.1-45c0-19.6,7.1-34.5,21.4-44.9
	c14.3-10.3,35-15.5,62.3-15.5c27.3,0,48.1,5.2,62.3,15.5c14.2,10.3,21.4,25.3,21.4,45.1c0,19.6-7.1,34.4-21.4,44.6
	C1206.8,322,1186,327.1,1158.7,327.1z M1158,301.7c9.5,0,17-3,22.3-9.1c5.4-6.1,8-14.6,8-25.6c0-10.9-2.7-19.5-8-25.7
	c-5.4-6.2-12.7-9.3-22.1-9.3c-9.1,0-16.3,3.1-21.5,9.1c-5.2,6.1-7.8,14.6-7.8,25.6c0,11.1,2.5,19.7,7.6,25.8
	C1141.6,298.6,1148.8,301.7,1158,301.7z"/>
<path class="st1" d="M1279.3,288.7v-54h-29.9v-27.9h29.9v-21l52.3-16.7v37.7h30v27.9h-30v44.1c0,6.2,1.6,10.5,4.7,13
	c3.1,2.5,8.6,3.7,16.4,3.7c1.7,0,3.6-0.1,5.6-0.2c2-0.1,4.2-0.3,6.5-0.5v27.7c-7.2,1.5-14,2.6-20.4,3.4c-6.4,0.8-12.3,1.2-17.8,1.2
	c-17,0-29.2-2.9-36.4-8.8C1282.9,312.4,1279.3,302.6,1279.3,288.7z"/>
<path class="st1" d="M1536.4,209.4v95.7c0,4.2,0.2,7.9,0.5,11.1c0.3,3.2,0.8,5.9,1.4,8.1h-52.8c-0.7-1.9-1.2-4.4-1.6-7.6
	c-0.4-3.2-0.6-6.9-0.6-11.2c-6.7,7.3-13.8,12.7-21.4,16.2c-7.6,3.5-15.8,5.3-24.7,5.3c-17.4,0-30.6-4.4-39.7-13.3
	c-9.1-8.9-13.6-21.9-13.6-39v-65.4h53.1v63.7c0,8.8,1.7,15.2,5,19.2c3.3,4,8.7,6,16,6c8.6,0,14.9-2.7,19.1-8
	c4.2-5.3,6.2-13.4,6.2-24.3v-56.7H1536.4z"/>
<path class="st1" d="M1563.1,324.3v-95.5c0-3.9-0.2-7.4-0.6-10.7c-0.4-3.3-0.9-6.1-1.5-8.5h52.9c0.7,1.8,1.2,4.1,1.4,7.1
	c0.3,2.9,0.4,6.7,0.4,11.4c6.6-7.2,13.8-12.6,21.4-16.1s16.1-5.2,25.4-5.2c17.2,0,30.2,4.4,39.2,13.3c8.9,8.9,13.4,21.8,13.4,38.8
	v65.4h-52.8v-63.7c0-8.8-1.7-15.2-5.1-19.2c-3.4-4-8.7-6-16-6c-8.6,0-15,2.7-19.2,8c-4.2,5.4-6.4,13.4-6.4,24.2v56.7H1563.1z"/>
<path class="st1" d="M1788.9,277.5v2.6c0,7.5,2,13.1,6,16.8c4,3.7,10.2,5.5,18.4,5.5c6.7,0,11.9-1.3,15.7-3.8
	c3.8-2.6,6.1-6.4,6.9-11.4h48.2c-0.7,12.9-7.6,22.9-20.5,30c-12.9,7.1-30.8,10.7-53.6,10.7c-26,0-45-4.8-57-14.4
	c-12.1-9.6-18.1-24.7-18.1-45.3c0-19.9,6.8-35.2,20.3-45.7c13.5-10.5,33.1-15.8,58.7-15.8c23.7,0,41.3,5.5,53.1,16.5
	c11.7,11,17.6,27.6,17.6,49.8v4.6H1788.9z M1837.3,253.2v-1.6c0-6.4-2-11.3-6.1-14.7c-4.1-3.4-9.9-5.1-17.5-5.1
	c-7.9,0-14,1.7-18.4,5.2c-4.4,3.5-6.5,8.4-6.5,14.8v1.3H1837.3z"/>
<path class="st1" d="M1904.5,324.5V229c0-4.2-0.2-7.9-0.5-11.1c-0.3-3.2-0.8-5.9-1.4-8.1h52.8c0.7,2.6,1.3,5.5,1.6,8.6
	c0.3,3.1,0.5,6.4,0.5,9.9c4.9-7.4,10.7-12.9,17.5-16.3c6.7-3.5,14.9-5.2,24.4-5.2c1.6,0,2.9,0,3.8,0.1c0.9,0,1.7,0.1,2.6,0.3v38
	c-2.4-0.2-4.7-0.4-6.8-0.5c-2.2-0.1-4.2-0.2-6-0.2c-13.2,0-22.4,2.6-27.7,7.8c-5.3,5.2-7.9,14.4-7.9,27.7v44.5H1904.5z"/>
<ellipse id="XMLID_11_" class="st0" cx="851.1" cy="181.8" rx="30" ry="23.6"/>
<path id="XMLID_70_" class="st1" d="M30,237.6c2-12.4,3.7-24.9,6-37.3c6.3-34.7,21-65.7,43-93.3c4.2-5.2,8.7-5.8,14.6-5.1
	c32.9,4,63,16,91.5,32.3c5.5,3.1,10.1,3.8,16.3,1.2c17.3-7.3,35.1-13.6,54.6-18.8c-9.2,15.2-18.4,30.3-27.7,45.5
	c0.8,0.8,1.6,1.5,2.3,2.3c28.9-3.8,57.7-6.2,89.3,1.8c-8.4,3.3-14.6,5.4-20.5,8.2c-14.7,7-29.6,13.7-43.6,21.9
	c-13.4,7.8-18.1,20.8-14.3,35.6c3.7,14.4,14.9,21.9,28.7,25.3c19.9,4.9,37.5,0.5,52.1-14.4c3.5,13.1,1.9,19.6-15.4,61.2
	c60.7-8.7,91.5-50.5,118.4-99c-2.3,20.2-3.4,40.6-7.3,60.5c-8.9,45.4-28.3,85.5-62.9,117.3c-30.6,28.1-67.1,44.7-107.2,54
	c-15.5,3.6-15.5,3.3-23.8-9.9c-2.4-3.9-5.1-7.6-7.5-11.5c-19.1-30.9-56.1-29.3-79.3-10c-5.7,4.8-10.8,10.6-15.2,16.6
	c-4.2,5.7-7.1,12.4-10.9,19.1c-23.9-17.8-40.7-41.4-53.5-67.9c-15.2-31.5-24.3-64.7-26.1-99.7c-0.1-2.1-1.2-4.2-1.9-6.3
	C30,257.4,30,247.5,30,237.6z M263.3,416.1c-10-37.3-37-52.6-72.9-57c0.1-1.3,0.2-2.5,0.3-3.8c9.3-2.3,18.7-4.7,28-7
	c0.3,0.8,0.6,1.7,1,2.5c-1.4,2.3-2.8,4.7-4.1,6.8c0.9,1,1.2,1.8,1.7,2c25.5,7.4,42.4,24,52.9,48c0.8,1.9,6.1,3.7,8.3,2.9
	c15.1-5.5,30-11.5,44.7-17.9c4.7-2,8.9-5.6,12.9-9c5.3-4.5,6.1-8.6,1.5-15.7c-7.3-11-12.3-23.6-17.4-35.9c-2.5-5.9-3-12.6-4.4-18.8
	c-38.9,1.3-59.1-10.2-59.5-33.4c2,0.4,4,0.8,6.2,1.3c-1.3-5.2-2.2-9.6-3.4-13.9c-0.5-2-1-5.1-2.3-5.7c-16.7-7-18.9-22.1-21.5-37.2
	c-2.4-14.3-5-28.7-7.6-43c-1.9-1-3.8-1.9-5.7-2.9c-2.5,5.1-5.1,10.2-7.6,15.3c-1.6-1.1-3.1-2.2-4.7-3.3c7.6-19,15.3-38,22.9-56.9
	c-1.1-0.9-2.2-1.8-3.3-2.8c-13.2,6.9-27,13-39.6,20.9c-30.1,19.1-40,44-31.2,78.6c2.6,10.2-2.7,14.5-9.8,20.9
	c-0.3-4-0.3-6.3-0.7-8.5c-0.3-2.2-1-4.3-1.9-7.8c-31.5,17.9-56.7,39.9-65.9,75.5c-4.9,18.8,4.1,40.1,18.9,47.5
	c3.4-35,7.3-69.8,34-96.3c-11.3,34.6-13.4,69.2-3.3,104.4c10.5,0,20.1-0.7,29.5,0.1c30.2,2.5,55.3,14.2,69.9,42.4
	c8.5,16.4,8.3,16.5,26.5,10.6C257.9,418.3,260.3,417.3,263.3,416.1z M184.9,144.7c-4.1-2.7-6.7-4.5-9.4-6.1
	c-23.4-13.9-49-21.8-75.4-27.7c-7.9-1.8-11.8,0.5-16,6.7c-18.6,27.6-29.2,57.9-32.1,90.9c-1.1,12.8-0.2,25.8-0.2,38.6
	c1.1,0.3,2.1,0.6,3.2,0.9c25.9-22.4,55.7-36.6,90.4-42.6C139,173,158.9,157.3,184.9,144.7z M414.5,244.6c-1.2-0.4-2.4-0.8-3.7-1.2
	c-3,3.8-6.1,7.6-9.1,11.4c-19.4,24.7-41.2,46-73,54.1c-1.8,0.5-4.5,3.5-4.3,5.1c1,8.2,2.8,16.2,4.5,25.2
	c30.5-14.1,48.3-38.9,69.5-60c-7.4,32.7-31.6,55.9-47.6,84.6c9.8,1.8,15.3-3,18.4-9c13.4-25.9,26.8-51.8,38.7-78.3
	C412.2,266.8,412.4,255.3,414.5,244.6z M284,304.1c17.8-2.7,31.2-23.7,28.8-44.7c-13.7,10-29.1,10.4-45.3,7.6
	c-0.7,5.5-1.5,10-1.7,14.5c-0.4,9.8,3.1,12.9,12.2,9.5c8.1-3,15.6-7.4,23.4-11.2c0.5,0.4,0.9,0.8,1.4,1.3
	C296.8,288.5,290.6,296,284,304.1z M243,196.7c11.5-8.1,23.9-16.8,36.3-25.5c-0.6-1-1.2-2.1-1.8-3.1c-15.3,3.6-31.9-0.6-46.1,8.4
	C235.3,183.3,238.9,189.5,243,196.7z"/>
<path id="XMLID_58_" class="st1" d="M240.3,299.4c-8.2,12.4-15.1,14.4-27.8,10.7c1.1-1.2,2-2.2,3.4-3.8
	c-24.2-9.5-10.4-30.7-15.6-47.2c10.4,1.1,17,6.5,20.9,14c3.7,7.1,5.9,15.1,8,22.9C230.5,300.9,230.7,305.7,240.3,299.4z
	 M216.4,274.4c-10.1-1.5-12.4,2.5-9.6,14.9C210.1,284.3,213.1,279.6,216.4,274.4z"/>
<path id="XMLID_57_" class="st1" d="M180.3,219.2c-17.1-27.1-1.3-59.4,31.7-66.6c-4.8,6.1-7.9,10.8-11.8,14.8
	c-9.3,9.5-18.2,18.4-14.8,34.1C186.5,206.8,182.1,213.3,180.3,219.2z"/>
<path id="XMLID_56_" class="st1" d="M276.5,379c2.1-3.7,4.3-7.6,6.5-11.6c9.1,6.5,9.8,17.5,0.9,27.7c-0.6-3.8-0.4-6.9-1.6-9.4
	C281.2,383.4,278.8,381.6,276.5,379z"/>
<path id="XMLID_3_" class="st2" d="M108.1,73c35.3-28.2,79.3-46.3,127.9-49.6c126.9-8.7,236.9,87.2,245.5,214.1
	c8.7,126.9-87.2,236.9-214.1,245.5c-41,2.8-80.3-5.3-114.9-21.9"/>
<path id="XMLID_6_" class="st2" d="M123.9,444.8c-83.4-56-123.8-162.2-92.1-262.9c10.4-33,27.5-62.1,49.3-86.2"/>
</svg>
