<?xml version="1.0" encoding="utf-8"?>
<!-- Generator: Adobe Illustrator 25.3.1, SVG Export Plug-In . SVG Version: 6.00 Build 0)  -->
<svg version="1.1" id="Capa_1" xmlns="http://www.w3.org/2000/svg" xmlns:xlink="http://www.w3.org/1999/xlink" x="0px" y="0px"
	 viewBox="0 0 732.9 732.9" style="enable-background:new 0 0 732.9 732.9;" xml:space="preserve">
<style type="text/css">
	.st0{fill:#1D1D1B;stroke:#000000;stroke-miterlimit:10;}
	.st1{fill:#EA3223;}
	.st2{fill:none;stroke:#EA3223;stroke-width:25;stroke-miterlimit:10;}
	.st3{fill:#FFFFFF;}
</style>
<path class="st0" d="M511.7,732.9H221.2C99.1,732.9,0,633.9,0,511.7V221.2C0,99.1,99.1,0,221.2,0l290.4,0
	c122.2,0,221.2,99.1,221.2,221.2v290.4C732.9,633.9,633.9,732.9,511.7,732.9z"/>
<path id="XMLID_70_" class="st1" d="M114.7,276.1c2.3-14,4.2-28.2,6.8-42.2c7.1-39.3,23.8-74.3,48.6-105.5c4.8-5.9,9.8-6.6,16.5-5.8
	c37.2,4.5,71.3,18.1,103.5,36.5c6.2,3.5,11.4,4.3,18.4,1.4c19.6-8.3,39.7-15.4,61.8-21.3c-10.4,17.2-20.8,34.3-31.3,51.5
	c0.9,0.9,1.8,1.7,2.6,2.6c32.7-4.3,65.3-7,101,2c-9.5,3.7-16.5,6.1-23.2,9.3c-16.6,7.9-33.5,15.5-49.3,24.8
	c-15.2,8.8-20.5,23.5-16.2,40.3c4.2,16.3,16.9,24.8,32.5,28.6c22.5,5.5,42.4,0.6,58.9-16.3c4,14.8,2.1,22.2-17.4,69.2
	c68.7-9.8,103.5-57.1,133.9-112c-2.6,22.8-3.8,45.9-8.3,68.4c-10.1,51.4-32,96.7-71.2,132.7c-34.6,31.8-75.9,50.6-121.3,61.1
	c-17.5,4.1-17.5,3.7-26.9-11.2c-2.7-4.4-5.8-8.6-8.5-13c-21.6-35-63.5-33.1-89.7-11.3c-6.4,5.4-12.2,12-17.2,18.8
	c-4.8,6.4-8,14-12.3,21.6c-27-20.1-46-46.8-60.5-76.8c-17.2-35.6-27.5-73.2-29.5-112.8c-0.1-2.4-1.4-4.8-2.1-7.1
	C114.7,298.5,114.7,287.3,114.7,276.1z M378.7,478c-11.3-42.2-41.9-59.5-82.5-64.5c0.1-1.5,0.2-2.8,0.3-4.3
	c10.5-2.6,21.2-5.3,31.7-7.9c0.3,0.9,0.7,1.9,1.1,2.8c-1.6,2.6-3.2,5.3-4.6,7.7c1,1.1,1.4,2,1.9,2.3c28.8,8.4,48,27.1,59.8,54.3
	c0.9,2.1,6.9,4.2,9.4,3.3c17.1-6.2,33.9-13,50.6-20.2c5.3-2.3,10.1-6.3,14.6-10.2c6-5.1,6.9-9.7,1.7-17.8
	c-8.3-12.4-13.9-26.7-19.7-40.6c-2.8-6.7-3.4-14.3-5-21.3c-44,1.5-66.9-11.5-67.3-37.8c2.3,0.5,4.5,0.9,7,1.5
	c-1.5-5.9-2.5-10.9-3.8-15.7c-0.6-2.3-1.1-5.8-2.6-6.4c-18.9-7.9-21.4-25-24.3-42.1c-2.7-16.2-5.7-32.5-8.6-48.6
	c-2.1-1.1-4.3-2.1-6.4-3.3c-2.8,5.8-5.8,11.5-8.6,17.3c-1.8-1.2-3.5-2.5-5.3-3.7c8.6-21.5,17.3-43,25.9-64.4c-1.2-1-2.5-2-3.7-3.2
	c-14.9,7.8-30.5,14.7-44.8,23.6c-34,21.6-45.2,49.8-35.3,88.9c2.9,11.5-3.1,16.4-11.1,23.6c-0.3-4.5-0.3-7.1-0.8-9.6
	c-0.3-2.5-1.1-4.9-2.1-8.8c-35.6,20.2-64.1,45.1-74.5,85.4c-5.5,21.3,4.6,45.4,21.4,53.7c3.8-39.6,8.3-79,38.5-108.9
	c-12.8,39.1-15.2,78.3-3.7,118.1c11.9,0,22.7-0.8,33.4,0.1c34.2,2.8,62.6,16.1,79.1,48c9.6,18.6,9.4,18.7,30,12
	C372.5,480.5,375.3,479.4,378.7,478z M290,171c-4.6-3.1-7.6-5.1-10.6-6.9c-26.5-15.7-55.4-24.7-85.3-31.3c-8.9-2-13.3,0.6-18.1,7.6
	c-21,31.2-33,65.5-36.3,102.8c-1.2,14.5-0.2,29.2-0.2,43.7c1.2,0.3,2.4,0.7,3.6,1c29.3-25.3,63-41.4,102.3-48.2
	C238,203.1,260.6,185.3,290,171z M549.7,284c-1.4-0.5-2.7-0.9-4.2-1.4c-3.4,4.3-6.9,8.6-10.3,12.9c-21.9,27.9-46.6,52-82.6,61.2
	c-2,0.6-5.1,4-4.9,5.8c1.1,9.3,3.2,18.3,5.1,28.5c34.5-15.9,54.6-44,78.6-67.9c-8.4,37-35.7,63.2-53.8,95.7
	c11.1,2,17.3-3.4,20.8-10.2c15.2-29.3,30.3-58.6,43.8-88.6C547.1,309.2,547.3,296.2,549.7,284z M402.1,351.4
	c20.1-3.1,35.3-26.8,32.6-50.6c-15.5,11.3-32.9,11.8-51.2,8.6c-0.8,6.2-1.7,11.3-1.9,16.4c-0.5,11.1,3.5,14.6,13.8,10.7
	c9.2-3.4,17.6-8.4,26.5-12.7c0.6,0.5,1,0.9,1.6,1.5C416.5,333.7,409.5,342.2,402.1,351.4z M355.7,229.9c13-9.2,27-19,41.1-28.8
	c-0.7-1.1-1.4-2.4-2-3.5c-17.3,4.1-36.1-0.7-52.1,9.5C347,214.7,351.1,221.7,355.7,229.9z"/>
<path id="XMLID_58_" class="st1" d="M352.6,346c-9.3,14-17.1,16.3-31.4,12.1c1.2-1.4,2.3-2.5,3.8-4.3
	c-27.4-10.7-11.8-34.7-17.6-53.4c11.8,1.2,19.2,7.4,23.6,15.8c4.2,8,6.7,17.1,9,25.9C341.5,347.7,341.8,353.2,352.6,346z
	 M325.6,317.8c-11.4-1.7-14,2.8-10.9,16.9C318.5,329,321.9,323.6,325.6,317.8z"/>
<path id="XMLID_57_" class="st1" d="M284.8,255.3c-19.3-30.7-1.5-67.2,35.9-75.3c-5.4,6.9-8.9,12.2-13.3,16.7
	c-10.5,10.7-20.6,20.8-16.7,38.6C291.8,241.3,286.8,248.6,284.8,255.3z"/>
<path id="XMLID_56_" class="st1" d="M393.6,436.1c2.4-4.2,4.9-8.6,7.4-13.1c10.3,7.4,11.1,19.8,1,31.3c-0.7-4.3-0.5-7.8-1.8-10.6
	C398.9,441.1,396.2,439,393.6,436.1z"/>
<path id="XMLID_3_" class="st2" d="M203.1,89.9C243,58,292.8,37.6,347.8,33.8c143.5-9.8,268,98.6,277.7,242.2
	c9.8,143.5-98.6,268-242.2,277.7c-46.4,3.2-90.8-6-130-24.8"/>
<path id="XMLID_6_" class="st2" d="M221,510.5c-94.3-63.3-140-183.5-104.2-297.4c11.8-37.3,31.1-70.2,55.8-97.5"/>
<path class="st3" d="M89.1,637.2v-35.9c0-1.6-0.1-3-0.2-4.2s-0.3-2.2-0.5-3h19.8c0.3,1,0.5,2.1,0.6,3.2c0.1,1.2,0.2,2.4,0.2,3.7
	c1.8-2.8,4-4.8,6.6-6.1c2.5-1.3,5.6-2,9.2-2c0.6,0,1.1,0,1.4,0c0.3,0,0.6,0,1,0.1v14.3c-0.9-0.1-1.8-0.2-2.6-0.2
	c-0.8,0-1.6-0.1-2.3-0.1c-5,0-8.4,1-10.4,2.9s-3,5.4-3,10.4v16.7H89.1z"/>
<path class="st3" d="M133.8,637.1v-61.9h19.9V601c2.3-2.7,5-4.7,7.9-6c2.9-1.4,6.1-2,9.6-2c6.5,0,11.4,1.6,14.8,4.7
	c3.4,3.2,5,7.8,5,13.8v25.6h-19.9v-24.6c0-3-0.6-5.2-2-6.7s-3.3-2.2-5.9-2.2c-3.2,0-5.6,1-7.2,3c-1.6,2-2.3,5-2.3,9.1v21.3
	L133.8,637.1L133.8,637.1z"/>
<path class="st3" d="M200.5,637.1V594h19.9v43.1H200.5z"/>
<path class="st3" d="M230.3,637.1v-35.9c0-1.5-0.1-2.8-0.2-4s-0.3-2.3-0.6-3.2h19.9c0.3,0.7,0.5,1.5,0.6,2.7
	c0.1,1.1,0.2,2.5,0.2,4.3c2.5-2.7,5.2-4.7,8-6.1c2.9-1.3,6.1-2,9.5-2c6.5,0,11.3,1.7,14.7,5c3.3,3.3,5,8.2,5,14.6v24.6h-19.8v-23.9
	c0-3.3-0.6-5.7-1.9-7.2c-1.3-1.5-3.3-2.3-6-2.3c-3.2,0-5.6,1-7.2,3c-1.6,2-2.4,5-2.4,9.1v21.3H230.3z"/>
<path class="st3" d="M326.2,638.2c-10.4,0-18.2-1.9-23.5-5.7c-5.3-3.8-7.9-9.4-7.9-16.9c0-7.4,2.7-13,8-16.9
	c5.4-3.9,13.2-5.8,23.4-5.8c10.3,0,18.1,2,23.4,5.8c5.3,3.9,8,9.5,8,16.9c0,7.4-2.7,12.9-8,16.8
	C344.2,636.2,336.4,638.2,326.2,638.2z M325.9,628.6c3.6,0,6.4-1.1,8.4-3.4c2-2.3,3-5.5,3-9.6c0-4.1-1-7.3-3-9.7
	c-2-2.3-4.8-3.5-8.3-3.5c-3.4,0-6.1,1.2-8.1,3.4c-2,2.3-2.9,5.5-2.9,9.6c0,4.2,0.9,7.4,2.9,9.7C319.7,627.4,322.4,628.6,325.9,628.6
	z"/>
<path class="st1" d="M371.5,623.7v-20.3h-11.2v-10.5h11.2v-7.9l19.7-6.3v14.2h11.3v10.5h-11.3V620c0,2.3,0.6,3.9,1.8,4.9
	c1.2,0.9,3.2,1.4,6.2,1.4c0.6,0,1.4,0,2.1-0.1s1.6-0.1,2.4-0.2v10.4c-2.7,0.6-5.3,1-7.7,1.3c-2.4,0.3-4.6,0.5-6.7,0.5
	c-6.4,0-11-1.1-13.7-3.3C372.8,632.6,371.5,628.9,371.5,623.7z"/>
<path class="st1" d="M468.1,593.9v36c0,1.6,0.1,3,0.2,4.2c0.1,1.2,0.3,2.2,0.5,3H449c-0.3-0.7-0.5-1.7-0.6-2.9s-0.2-2.6-0.2-4.2
	c-2.5,2.7-5.2,4.8-8,6.1s-5.9,2-9.3,2c-6.5,0-11.5-1.7-14.9-5c-3.4-3.3-5.1-8.2-5.1-14.7v-24.6h20v23.9c0,3.3,0.6,5.7,1.9,7.2
	c1.2,1.5,3.3,2.3,6,2.3c3.2,0,5.6-1,7.2-3s2.3-5,2.3-9.1v-21.3L468.1,593.9L468.1,593.9z"/>
<path class="st1" d="M478.1,637.1v-35.9c0-1.5-0.1-2.8-0.2-4s-0.3-2.3-0.6-3.2h19.9c0.3,0.7,0.5,1.5,0.5,2.7
	c0.1,1.1,0.2,2.5,0.2,4.3c2.5-2.7,5.2-4.7,8-6.1c2.9-1.3,6.1-2,9.5-2c6.5,0,11.3,1.7,14.7,5c3.3,3.3,5,8.2,5,14.6v24.6h-19.8v-23.9
	c0-3.3-0.6-5.7-1.9-7.2s-3.3-2.3-6-2.3c-3.2,0-5.6,1-7.2,3c-1.6,2-2.4,5-2.4,9.1v21.3H478.1z"/>
<path class="st1" d="M563,619.5v1c0,2.8,0.8,4.9,2.3,6.3s3.8,2.1,6.9,2.1c2.5,0,4.5-0.5,5.9-1.4c1.4-1,2.3-2.4,2.6-4.3h18.1
	c-0.3,4.8-2.9,8.6-7.7,11.3c-4.8,2.7-11.6,4-20.1,4c-9.8,0-16.9-1.8-21.4-5.4c-4.5-3.6-6.8-9.3-6.8-17c0-7.5,2.6-13.2,7.6-17.2
	c5.1-3.9,12.4-5.9,22.1-5.9c8.9,0,15.5,2.1,20,6.2c4.4,4.1,6.6,10.4,6.6,18.7v1.7L563,619.5L563,619.5z M581.2,610.4v-0.6
	c0-2.4-0.8-4.2-2.3-5.5c-1.5-1.3-3.7-1.9-6.6-1.9c-3,0-5.3,0.6-6.9,2s-2.4,3.2-2.4,5.6v0.5L581.2,610.4L581.2,610.4z"/>
<path class="st1" d="M606.4,637.2v-35.9c0-1.6-0.1-3-0.2-4.2s-0.3-2.2-0.5-3h19.8c0.3,1,0.5,2.1,0.6,3.2c0.1,1.2,0.2,2.4,0.2,3.7
	c1.8-2.8,4-4.8,6.6-6.1c2.5-1.3,5.6-2,9.2-2c0.6,0,1.1,0,1.4,0c0.3,0,0.6,0,1,0.1v14.3c-0.9-0.1-1.8-0.2-2.6-0.2
	c-0.8,0-1.6-0.1-2.3-0.1c-5,0-8.4,1-10.4,2.9c-2,2-3,5.4-3,10.4v16.7H606.4z"/>
<ellipse id="XMLID_11_" class="st3" cx="210.6" cy="583.6" rx="11.3" ry="8.9"/>
</svg>
