<?xml version="1.0" encoding="utf-8"?>
<!-- Generator: Adobe Illustrator 25.3.1, SVG Export Plug-In . SVG Version: 6.00 Build 0)  -->
<svg version="1.1" id="Capa_1" xmlns="http://www.w3.org/2000/svg" xmlns:xlink="http://www.w3.org/1999/xlink" x="0px" y="0px"
	 viewBox="0 0 967.2 2016.2" style="enable-background:new 0 0 967.2 2016.2;" xml:space="preserve">
<style type="text/css">
	.st0{fill:#EA3223;}
</style>
<path class="st0" d="M421.1,427.8c-13.6-0.7-28.1,1-40.9-2.8c-17.1-5.1-13-20.7-10.1-35.9c-7.1-0.2-13.7-0.4-19.3-0.6
	c-1.6,1.6-2.9,2.3-3,3.1c-0.9,13.6-5.1,25.2-21.3,24c-16.3-1.2-18.1-13.8-17.8-27.1c0.3-11.7,0.3-23.5,0-35.3
	c-0.3-12.6,1.3-24,16.3-27c11.5-2.3,19,5.1,23.6,22.7c9.3,0,18.7,0,29.3,0.1c3.8-19.8,7.6-39.5,11.7-60.8
	c-8.9,0.9-16.2,1.7-24.4,2.6c-0.4,2.6,0.5,8.2-1.9,10.6c-5.5,5.6-12.6,13.5-18.9,13.3c-6.1-0.2-16.4-8.8-17-14.6
	c-2.1-19.5-1.8-39.5-0.1-59.1c0.5-5.4,8.9-13.4,14.3-14c6.4-0.7,14.1,4.6,19.9,9c3,2.3,3.1,8.5,4.8,13.7c9.8-0.1,19.3-0.1,30.6-0.2
	c3.9-20,7.7-39.7,12-61.9c-7.9,1.6-14.5,2.9-21.1,4.2c0-1-0.1-2.1-0.1-3.1c-0.6,0.8-1.8,1.5-1.9,2.3c-0.9,13.6-4.9,25.4-21.3,23.9
	c-16-1.4-18.1-13.8-17.8-27.2c0.3-12.8,0.2-25.6,0.1-38.5c-0.2-12.1,3.9-21.6,16.8-23.3c12.9-1.7,19.8,5.7,21.6,18.2
	c0.2,1.4,1.1,2.8,2.3,5.4c8.8-0.3,17.7-0.5,28.7-0.8c3.8-19.5,7.6-39.2,11.5-59.6c-7.4,0.4-13.9,0.8-21.1,1.1c-0.3,2,0.5,7-1.6,9.1
	c-5.9,5.8-12.4,13.5-19.7,14.8c-9.9,1.7-17-6.4-17.4-16.8c-0.7-18.1-1.7-36.5,0.6-54.4c0.9-6.5,10.3-15.7,17-16.9
	c14.8-2.6,19.7,9.2,21.4,23.3c9-0.2,18-0.5,26.7-0.7c0.8-1.1,1.7-1.8,2-2.7c7.2-29.8,11.3-33.1,42.1-34.1
	c40.1-1.3,58.2,10.8,69.4,49.4c6.8,23.5,12.6,47.5,16.4,71.7c5.4,34,18.3,64.3,37.2,92.7c7.7,11.5,14.2,23.8,20.1,36.4
	c24.2,52.1,2.9,128.8-45.2,160.2c-7.7,5.1-19.1,4.6-34,5.8c1.2,7.3,3.3,14.7,3.4,22c4.4,262.2,8.7,524.5,13,786.7
	c0.3,19.9,9.5,29.2,31.5,31.6c19,2.1,33.7-7.2,37.1-24.9c2-10.4,1.7-21.2,2.5-31.9c3.1-39.7,8.5-78.7,33.2-111.9
	c28.5-38.3,72.5-40.1,103.5-4c28.1,32.8,39.2,71.7,38.8,114.1c-0.5,45.4-11.6,88.7-27.6,130.9c-8.9,23.4-17.1,47.2-26.7,70.3
	c-20,48.1-11.9,90.3,20.1,131.5c75.4,97.4,80.6,239.2,15,343.8c-28.1,44.9-68,76.3-117.8,91.3c-126.6,37.9-253.7,36.8-376.8-12.4
	c-103.8-41.5-146.4-127.8-154-235c-5.3-74.2,15.3-142.5,46.2-208.6c11.7-25.1,23-50.5,33.6-76.1c12.6-30.5,14.9-62.2,6.8-94.2
	c-13.2-52.3-28.3-104.1-39.5-156.7c-9.4-44.2-16.6-89.2-21-134.2c-3.8-39.2,7.4-76.3,31.6-108.3c37.1-48.9,88.1-45.4,118.4,8
	c17,30,22.2,63.2,24.6,96.9c0.6,8,0.7,16,1,24c0.8,15.5,5.9,28.3,22,33.7c14.7,5,38.1-1.3,46.9-13.1c2.3-3.1,3.4-7.7,3.5-11.7
	c3.8-219.5,7.4-439,10.9-658.5C421.9,430.5,421.5,429.5,421.1,427.8z M564.3,1662.1c11.6-0.9,21.7-2.5,31.8-2.4
	c15.8,0.2,22.6,6.8,22.7,22.5c0.3,37.9,0.2,75.8,0,113.8c-0.1,14.3-7.5,21.7-21.9,21.8c-75.8,0-151.7,0.1-227.5,0
	c-14.4,0-21.6-7.8-21.7-22c-0.1-37.9-0.3-75.9,0.1-113.8c0.1-15.8,6.7-22,22.9-22.2c10-0.1,20,1.3,29.1,1.9
	c0.8-11.7,1.4-19.5,1.7-24.6c-17.6-4.9-34.8-7.1-49.3-14.5c-16.3-8.3-22.2-25.1-21.7-43.5c0.9-34.8,17.8-47.1,73.5-52.6
	c2.1-125.8,4.1-251.7,6.2-378.6c-7,2-12.4,3.9-18,5c-30.7,6.4-59.4,1.1-76.6-26.1c-9.6-15.2-13.2-35.6-15.2-54.1
	c-3.7-34.1-4.7-68.4-24.3-98.3c-15.4-23.5-32.6-24-49.3-1.7c-18.7,24.9-28,53.4-25.6,84c2.7,34.5,6.8,69.2,14.2,102.9
	c12.4,56.2,27.4,111.9,42.4,167.6c14.1,52.2,10.2,102.4-12.7,151.4c-12.6,27-24.7,54.4-36.9,81.6c-31.1,69.7-42.3,141.8-26.3,217.2
	c15.8,74.5,58.1,128.2,129.3,155c35.1,13.2,72.7,21.7,110,26.3c72.9,9.2,146.1,8.6,217.7-11.8c42-12,79.1-32.5,105.3-68.7
	c65-89.7,64.9-222.8-3.4-310.6c-42.2-54.4-51.2-110.8-25.4-173.8c8.3-20.2,15.9-40.7,23.7-61.2c14.9-39.1,26-79.1,27-121.3
	c0.7-31.9-6.7-61.4-26.5-87c-16.9-21.8-34.4-21.9-47.9,1.6c-8.9,15.4-15.5,32.9-19.1,50.3c-4.4,21.3-4.3,43.5-6.6,65.2
	c-4.9,45.5-42.2,73-87.3,64.4c-6.2-1.2-12.3-2.9-19.6-4.7c1.3,75.9,2.5,150.9,3.8,225.7c51.8,3.6,72.3,16.8,72.6,48.9
	c0.1,12.5-3.6,26.9-10.3,37.4c-13.6,21.4-37.6,20.8-57.3,20C566.6,1642.7,565.7,1650.6,564.3,1662.1z M460.5,427.3
	c-6,367.1-12.1,733.2-18,1096.7c27.6,0.1,54.1,0.2,81.7,0.2c-5.9-364.6-11.8-730.5-17.8-1096.1C489.9,427.9,475.6,427.6,460.5,427.3
	z M409.4,389.1c39.8-0.2,77.4-3.1,114.3,0.4c31.8,3,47.1-12.2,58.7-37.1c1.1-2.4,2.3-4.8,3.4-7.2c16.1-34.9,4.7-65.8-15-94.6
	c-24.6-35.8-40.3-74.6-46.5-117.8c-2.8-20-8.2-39.7-13.5-59.2C504.9,51.1,499.5,48.4,474,52C452.7,163.2,431.4,274.7,409.4,389.1z
	 M577.6,1700.8c-62.7,0-126.4,0-189,0c-0.1,25-0.3,51.4-0.4,76.6c63.2-0.1,127-0.2,189.9-0.3
	C577.9,1752.2,577.8,1726.2,577.6,1700.8z M441.1,1568.3c0.1,7.8,0.3,16.2,0.3,21.8c28.5,0.1,55.8,0.2,80.5,0.3
	c0.6-6.6,1.5-15,2.2-22.1C496.6,1568.3,470.1,1568.3,441.1,1568.3z M526.6,1635.2c-29.6,0-57,0-83.7,0c-0.9,7.1-1.8,15.3-2.4,20.1
	c29.7,0.1,57.6,0.3,85.3,0.4C526,1649.9,526.3,1642.5,526.6,1635.2z M563.1,1562.7c0.4,13.9,0.6,22.2,1,34c11.8-2.9,22-4.3,31.1-8.4
	c2.3-1,2.6-14.6,0.5-15.5C586.3,1568.4,575.9,1566.4,563.1,1562.7z M403.5,1563.1c-12.4,3.3-22.8,5.2-32.2,9.4
	c-2,0.9-1.9,14.3,0.3,15.3c9.2,4.2,19.6,5.9,31.8,9.1C403.5,1584,403.5,1575.7,403.5,1563.1z"/>
</svg>
