<?xml version="1.0" encoding="utf-8"?>
<!-- Generator: Adobe Illustrator 25.3.1, SVG Export Plug-In . SVG Version: 6.00 Build 0)  -->
<svg version="1.1" id="Capa_1" xmlns="http://www.w3.org/2000/svg" xmlns:xlink="http://www.w3.org/1999/xlink" x="0px" y="0px"
	 viewBox="0 0 967.2 2016.2" style="enable-background:new 0 0 967.2 2016.2;" xml:space="preserve">
<style type="text/css">
	.st0{fill:#EA3223;}
</style>
<path class="st0" d="M660.8,17.9c-3.7,29.6-7.4,58.5-11.2,88.9c32.5,0,63.4,0,95,0c0,23.4,0,45.3,0,68.6c-4.2,0.2-8.1,0.6-12.1,0.6
	c-27.4,0.1-54.8,0.2-82.2-0.1c-7.4-0.1-10.7,2-11.5,9.8c-1.8,18.2-4.6,36.2-7.2,55.9c29.7,0,58.1,0,87.2,0c0,23.6,0,45.9,0,69.6
	c-15.6,0-30.8,0-46.1,0c-13.5,0-27,0.4-40.5-0.1c-7.7-0.3-10.2,2.6-11.3,10c-9.1,60.9-13.5,122-11.6,183.8
	c2.9,93,3.6,186.1,4.8,279.1c0.1,8.8,3.7,12.1,11.2,15.1c76.9,30.7,138.3,79.5,175.9,154.6c31.6,63.1,37,129.4,12.1,195.3
	c-31,82.4-13.2,153.7,41.6,218.5c43.3,51.2,73.1,108.8,83.4,175.5c15.8,101.4-10.4,192.2-73.8,271.8
	c-71.9,90.3-167.9,141.5-280.2,161.8c-143.6,25.9-277.1-0.3-396.1-87c-74.4-54.3-128-124.7-149.5-215.5
	c-26.7-112.7,1.6-213.4,74.6-301.6c28.6-34.6,50.1-71.8,56.6-116.7c4.6-32.5,3.3-64.9-8.3-95.5c-51-134.7,12.9-266.3,128.1-334.3
	c17.4-10.2,35.8-18.9,54.5-26.5c9.9-4,13.5-8.6,13.6-19.3c0.6-70.5,1.9-141.1,3-211.6c0.7-43.1,3-86.3,1.7-129.4
	c-1-33.2-6.4-66.3-10-99.4c-1-8.9-2.5-17.8-4.1-28.3c-32.6,0-65,0-97.8,0c0-23.7,0-45.7,0-69.2c29.1,0,57.8,0,88.6,0
	c-3-21.9-5.5-42.2-8.9-62.3c-0.3-1.8-6.6-3.6-10.2-3.6c-26.6-0.3-53.3-0.2-79.9-0.2c-4,0-8.1,0-12.9,0c0-23.3,0-45.3,0-68.8
	c30.6,0,61.1,0,93.5,0c-3.9-30.6-7.6-59.5-11.4-89.2C426.5,17.9,542.9,17.9,660.8,17.9z M616.8,870c-0.4,4.3-0.7,6.5-0.7,8.7
	c0.9,57.8,1.6,115.6,2.9,173.3c0.1,4.7,2.6,10.1,5.5,14c41.9,56.6,49.6,118,20.3,181.4c-29.2,63.2-81.1,98.4-150.6,101.3
	c-73.3,3.1-129.9-29.5-163.5-94.9c-33-64.3-26.2-127.5,15.9-186.8c3.6-5.1,6.3-12,6.5-18.2c1.2-35.6,1.6-71.3,2.1-106.9
	c0.3-23.5,0.1-47,0.1-73.1c-13.7,7.6-26.4,13.9-38.2,21.5c-76.7,49.5-129.8,141.4-90,246.9c17,45.1,18.3,92.4,9.6,139.8
	c-9.9,53.5-35.9,98.4-70.2,140.1c-65.8,80-87,170.2-51.3,269.4c27.3,76,81,130.6,149.7,170.9c87.7,51.5,182.9,68,282.9,55
	c95.5-12.5,179.9-50.2,245.9-121.9c68.4-74.5,96-161.4,71-261.7c-11.6-46.4-37-85.3-67-122.2c-67.7-82.9-88.4-174.9-50.4-277.7
	c20.2-54.6,14.5-107.8-15-158C705.4,925.1,666,893.3,616.8,870z M549.2,1010.8c0-6.6,0.1-11.7,0-16.8c-2-105-4.1-209.9-5.9-314.9
	c-1.3-70.5-2.5-141-3.1-211.5c-0.1-11-3.5-14-14.2-13.7c-26.2,0.7-52.5,0.2-78.7,0.2c-14.9,0-14.9,0-15.1,14.5
	c-2.8,165.7-5.7,331.4-8.4,497.1c-0.2,14.5,0,29,0,44.8C465.5,996.4,506.7,995.9,549.2,1010.8z M389.4,86.7c0,3.3-0.2,5.2,0,7
	c11.6,86.1,23.2,172.3,35,258.4c1.5,10.6,0.3,25.3,6.6,30.6c6.5,5.5,20.7,2,31.5,2c26.6,0.1,53.1,0,80.8,0
	c12.9-99.8,25.7-198.6,38.6-298.1C516.6,86.7,453.4,86.7,389.4,86.7z M592.2,1174.1c0.1-58.5-47.2-105.5-106.2-105.4
	c-58.5,0-105.7,46.5-106,104.4c-0.3,58.7,47.7,107.1,106.1,107.1C544.1,1280.2,592.1,1232.1,592.2,1174.1z"/>
<path class="st0" d="M649.3,1619.9c-109,0-217.2,0-326.2,0c0-22.6,0-44.9,0-67.9c108.6,0,217.1,0,326.2,0
	C649.3,1574.4,649.3,1596.4,649.3,1619.9z"/>
</svg>
