<?xml version="1.0" encoding="utf-8"?>
<!-- Generator: Adobe Illustrator 25.3.1, SVG Export Plug-In . SVG Version: 6.00 Build 0)  -->
<svg version="1.1" id="Capa_1" xmlns="http://www.w3.org/2000/svg" xmlns:xlink="http://www.w3.org/1999/xlink" x="0px" y="0px"
	 viewBox="0 0 967.2 2016.2" style="enable-background:new 0 0 967.2 2016.2;" xml:space="preserve">
<style type="text/css">
	.st0{fill:#EA3223;}
</style>
<path class="st0" d="M751.2,1169.7c-33.1-8.1-52.4,8-64.4,32.8c-8.6,17.7-15.2,37.4-17.9,56.8c-8.4,60.5,0.5,118.1,35.5,169.8
	c3.9,5.7,8.6,11,13.7,15.7c19.7,18.2,35.8,19.8,65.1,7c8,7.6,12.4,15,10,28c-6.5,35,5.3,67.4,20.2,98.2
	c29.2,60.3,35.4,123.3,24.7,188.6c-10.1,61.7-45.5,107.4-95.4,141c-124.3,83.6-259.9,95-401.7,56.3c-50.6-13.8-96.2-37.9-136.7-71.5
	c-58.9-48.9-81.8-112.9-80.2-187.5c0.9-42.8,9.9-83.4,27.6-122.7c9.9-22,16.5-45.8,22.2-69.3c2.8-11.4,1.8-24.5-0.6-36.1
	c-2.1-10,1.9-15.9,7.6-21.8c1.5-1.6,5.5-2.1,7.8-1.3c32.9,11.6,53.6,5.3,73.8-23.6c32.5-46.5,41.3-99,38-154.2
	c-1.8-29.9-8.1-58.8-26-83.8c-12.2-17-27.9-27.2-50.1-24.1c-2.7,0.4-7.6-1.3-8.1-3c-0.9-2.9-0.2-7.9,1.8-9.7
	c11.3-10,15.2-23.4,13.1-36.7c-3.9-24.7-8.5-49.8-16.7-73.4c-23.9-68.5-12.6-130.7,30.9-187.2c43.8-56.9,104-87.1,173.2-101.4
	c2.6-0.5,5.1-0.9,7.7-1.5c0.8-0.2,1.6-0.6,3.7-1.4c4.3-155.3,8.5-311.2,12.8-468.8c-27.8,0.1-53.8-0.1-79.8,0.5
	c-2.4,0.1-5.9,5.2-6.9,8.6c-5.9,18.8-13.6,22.4-31.9,14.5c-16.6-7.2-26.1-25.2-22.5-42.8c3.7-18.1,20.1-32.1,38.3-31.1
	c4.4,0.2,9.9,4.4,12.5,8.4c3.2,4.8,3.9,11.3,5.4,16.1c27.9,0,55.2,0.1,82.3,0.1c-0.2-30.4-0.3-61.7-0.5-91.7
	c-26,0.2-53.2,0.4-82.3,0.7c0.3-1.1-0.4,1.2-1.1,3.6c-5.2,20.5-14,24.7-33.2,15.7c-15.4-7.2-24.5-24.2-21.8-40.9
	c2.8-17.4,16.7-30.3,34.5-32.6c9.9-1.3,16,1.9,18.4,11.7c1.1,4.6,2.6,9.2,3.7,13.1c27.8,0,55.1,0,85,0
	c-7.1-17.2-14.1-34.4-21.9-53.1c8.9-0.8,15.2-1.3,22.3-1.9c3.4-17.3,6.7-34.4,9.6-48.8c16.3,0.7,31.7,1.4,47.2,2.1
	c0.5-2,0.9-4,1.4-6c2.1,10.5,4.2,21,6.2,31.5c3.9,20.6,3.8,20.6,25.8,23.1c-7.6,12.7-2.3,30.3-18.6,38.8c-1.1,0.6-1.1,4-1.1,6.2
	c-0.1,18.7-0.2,37.4-0.3,55.3c28.2-0.3,55.4-0.6,84.4-1c0.1-0.3,0.9-3.5,1.8-6.7c4.7-17.4,10.3-20.4,27.5-14.9
	c16.7,5.3,28.1,21.6,27.1,38.8c-1,17.3-13.6,32.1-30.9,36.1c-14,3.2-18.9,0.3-23.3-13.6c-1.2-3.7-2.1-7.5-3.1-11.1
	c-27.7,0.3-54.9,0.6-82.1,0.9c0.1,30.2,0.2,61.4,0.3,91.5c26.7,0.1,53.9,0.2,82.1,0.2c0.3-0.8,1-3.3,1.7-5.8
	c5.3-19.5,12.8-23.2,31.5-15.4c15.2,6.3,25,22.4,23.7,38.6c-1.3,16.3-13.2,30.4-29.2,34.7c-15.8,4.2-20.4,1.6-24.9-13.9
	c-1-3.3-1.7-6.7-2.4-9.3c-28-0.1-55.6-0.2-84.2-0.4c4,138.6,8,277.9,11.8,413.5c35,11.8,69.1,20.1,100.4,34.4
	c64,29.3,110.8,76.2,132,145.2c11.6,37.6,8.8,74.7-3.5,111.7c-6.9,21-13.7,42.3-17.6,64c-3.4,18.9-3.4,38.4,13.9,53
	C752.9,1158.3,751.2,1164.5,751.2,1169.7z M498.3,1933.3c3.8,1.2,4.6,1.7,5.4,1.7c74-3.8,143.9-21.4,205.8-63.7
	c33.5-22.9,63.1-50.7,74.7-91.2c16.4-57,14.5-113.8-9.8-168.7c-13.6-30.8-26.3-61.7-30.9-95.3c-0.4-3.1-4.5-7.4-7.5-8.2
	c-32.9-7.8-56.9-28-74.7-55.5c-42.8-65.9-52.1-138.5-38.6-214.5c7.4-41.3,24.3-78.1,59.7-103.8c2.3-1.7,4.2-5.8,4.1-8.7
	c-1.5-35.7,9.1-68.8,21.4-101.6c14.7-39.2,10.3-77-9.9-113.3c-27.6-49.6-71.4-78.8-123.7-96.5c-17-5.8-34.9-8.9-56.1-14.2
	c1.2,7.6,2.4,11.4,2.4,15.3c1.8,94.1,3.6,188.2,5.3,282.3c2.6,140.7,5.2,281.5,7.9,422.2c0.1,4.7,0.1,12.7,2.1,13.4
	c14.4,4.8,6.8,13.8,4.1,20.6c-18.6,47.4-32,96.3-34.8,146.9c-3.8,68.2-3.6,136.7-5.2,205C499.7,1915.3,498.8,1924.8,498.3,1933.3z
	 M455.2,1934.5c0.5-2.2,1.1-3.4,1.1-4.6c-0.4-64,0.7-128.1-1.6-192.1c-2.3-63.9-14.9-126.1-38.8-185.8c-1.9-4.8-2.4-15.2-1.4-15.5
	c11-3.2,7.1-11.8,7.2-18.2c4.2-214.7,8.2-429.4,12-644.2c0.4-23.3-1.2-46.6-1.9-70.1c-30.6,5.4-60.8,15.9-88.9,32.4
	c-82.2,48.5-106.8,117.1-76.8,207.2c8.1,24.4,10.6,50.9,14.2,76.6c1,7.4,3,12.1,8.2,17.5c13,13.8,28.4,27.1,36.1,43.8
	c40.6,88.1,33.4,175.4-11.6,259.7c-17.7,33.2-44,58.2-82.6,67.2c-3,0.7-5.8,6.3-7,10.2c-9.2,28-16.3,56.8-27.3,84.1
	c-11.9,29.4-21.3,59-22.4,90.7c-1.5,45,1.1,89.3,30,127c29.9,39,69.5,65.1,114.7,83.6C362.4,1921.9,407.9,1931.7,455.2,1934.5z
	 M453.9,1535.2c1.8-246.5,3.7-490.6,5.5-739c-5,4.5-8,6-9,8.4c-1.1,2.6-0.4,6-0.5,9c-4.3,229.5-8.7,459-13,688.4
	c-0.2,10.7,0,21.4-0.1,32.4C443.1,1534.7,447.8,1535,453.9,1535.2z M487.2,1533.8c-1.9-245.9-3.8-491.2-5.7-736.5
	c-2.3,0-4.6,0-6.8,0c-1.9,245.4-3.7,490.8-5.6,738C475.4,1534.8,480.5,1534.3,487.2,1533.8z M519.5,1534.5
	c-0.4-9.1-0.9-16.9-1.1-24.6c-3.3-176.8-6.5-353.5-9.8-530.3c-1-56.6-2.1-113.2-3.2-169.8c-0.2-9.9-0.2-9.9-8.7-9.3
	c1.9,244.5,3.7,488.9,5.6,734.9C508.3,1535.1,512.6,1534.9,519.5,1534.5z"/>
</svg>
